<svg width="112" height="18" viewBox="0 0 112 18" fill="none" xmlns="http://www.w3.org/2000/svg">
<path d="M3.98047 14.0352C3.98047 14.4961 4.00391 14.8633 4.05078 15.1367C4.10547 15.4102 4.18359 15.6289 4.28516 15.793C4.39453 15.9492 4.53906 16.0742 4.71875 16.168C4.89844 16.2539 5.17969 16.3398 5.5625 16.4258V17H0.417969V16.4258C0.902344 16.3008 1.22656 16.1641 1.39062 16.0156C1.55469 15.8594 1.66016 15.6406 1.70703 15.3594C1.76172 15.0781 1.78906 14.6484 1.78906 14.0703V3.93359C1.78906 3.39453 1.76953 3.00391 1.73047 2.76172C1.69141 2.51172 1.625 2.32031 1.53125 2.1875C1.44531 2.04688 1.32812 1.9375 1.17969 1.85938C1.03125 1.77344 0.777344 1.67969 0.417969 1.57812V1.00391H6.23047C8.05859 1.00391 9.41797 1.35547 10.3086 2.05859C11.207 2.75391 11.6562 3.81641 11.6562 5.24609C11.6562 6.05859 11.5156 6.78906 11.2344 7.4375C10.9531 8.08594 10.5547 8.61719 10.0391 9.03125C9.52344 9.44531 8.91406 9.74219 8.21094 9.92188C7.50781 10.1016 6.76953 10.1914 5.99609 10.1914C5.12891 10.1914 4.45703 10.1758 3.98047 10.1445V14.0352ZM3.98047 9.17188H5.33984C6.22266 9.17188 6.94922 9.05859 7.51953 8.83203C8.09766 8.59766 8.53906 8.21484 8.84375 7.68359C9.14844 7.14453 9.30078 6.43359 9.30078 5.55078C9.30078 4.87891 9.21094 4.32031 9.03125 3.875C8.85156 3.42188 8.60156 3.05859 8.28125 2.78516C7.96875 2.51172 7.59375 2.32031 7.15625 2.21094C6.71875 2.09375 6.24219 2.03516 5.72656 2.03516C4.95312 2.03516 4.37109 2.05078 3.98047 2.08203V9.17188ZM17.6211 15.9219H20.6914C21.0273 15.9219 21.3086 15.9023 21.5352 15.8633C21.7617 15.8242 21.9531 15.7656 22.1094 15.6875C22.2734 15.6016 22.418 15.4883 22.543 15.3477C22.6758 15.1992 22.8008 15.0078 22.918 14.7734C23.0352 14.5391 23.1445 14.2461 23.2461 13.8945C23.3555 13.5352 23.4883 13 23.6445 12.2891H24.8281L24.5938 17H14.0586V16.4258C14.543 16.3008 14.8672 16.1641 15.0312 16.0156C15.1953 15.8594 15.3008 15.6406 15.3477 15.3594C15.4023 15.0781 15.4297 14.6484 15.4297 14.0703V3.93359C15.4297 3.39453 15.4102 3.00391 15.3711 2.76172C15.332 2.51172 15.2656 2.32031 15.1719 2.1875C15.0859 2.04688 14.9688 1.9375 14.8203 1.85938C14.6719 1.77344 14.418 1.67969 14.0586 1.57812V1.00391H18.9922V1.57812C18.6484 1.67188 18.4023 1.75781 18.2539 1.83594C18.1133 1.90625 17.9961 2.00391 17.9023 2.12891C17.8086 2.25391 17.7383 2.44531 17.6914 2.70312C17.6445 2.96094 17.6211 3.37109 17.6211 3.93359V15.9219ZM34.8594 17V16.4258C35.25 16.3477 35.5391 16.2617 35.7266 16.168C35.9219 16.0742 36.0664 15.9453 36.1602 15.7812C36.2539 15.6094 36.3008 15.3828 36.3008 15.1016C36.3008 14.8359 36.2695 14.5508 36.207 14.2461C36.1445 13.9336 36.0547 13.5859 35.9375 13.2031L35.5039 11.6914H30.043L29.6445 12.8398C29.4414 13.418 29.3086 13.8555 29.2461 14.1523C29.1836 14.4492 29.1523 14.7188 29.1523 14.9609C29.1523 15.4297 29.2695 15.7734 29.5039 15.9922C29.7461 16.2109 30.1133 16.3555 30.6055 16.4258V17H25.6016V16.4258C26.0391 16.3555 26.418 16.1016 26.7383 15.6641C27.0664 15.2266 27.3828 14.6016 27.6875 13.7891L32.5742 0.816406H34.4258L38.4102 13.8828C38.5977 14.4922 38.7617 14.957 38.9023 15.2773C39.0508 15.5977 39.2266 15.8477 39.4297 16.0273C39.6328 16.207 39.9102 16.3398 40.2617 16.4258V17H34.8594ZM30.3594 10.6719H35.2578L33.0312 3.11328L30.3594 10.6719ZM44.3984 10.2852L41.1641 4.27344C40.7734 3.54688 40.4766 3.02734 40.2734 2.71484C40.0703 2.40234 39.8672 2.15625 39.6641 1.97656C39.4609 1.79688 39.2266 1.66406 38.9609 1.57812V1.00391H43.9531V1.57812C43.2188 1.66406 42.8516 1.98047 42.8516 2.52734C42.8516 2.75391 42.9023 3.00781 43.0039 3.28906C43.1133 3.57031 43.3047 3.96875 43.5781 4.48438L45.9219 8.94922L48.2305 4.87109C48.543 4.31641 48.7617 3.86328 48.8867 3.51172C49.0195 3.15234 49.0859 2.82422 49.0859 2.52734C49.0859 2.24609 49 2.02734 48.8281 1.87109C48.6641 1.70703 48.418 1.60938 48.0898 1.57812V1.00391H52.5312V1.57812C52.2109 1.69531 51.9297 1.85938 51.6875 2.07031C51.4453 2.27344 51.1992 2.55078 50.9492 2.90234C50.6992 3.25391 50.332 3.84766 49.8477 4.68359L46.5898 10.2383V14.0352C46.5898 14.4805 46.6133 14.8398 46.6602 15.1133C46.707 15.3867 46.7852 15.6055 46.8945 15.7695C47.0039 15.9336 47.1484 16.0625 47.3281 16.1562C47.5078 16.25 47.7891 16.3398 48.1719 16.4258V17H42.8164V16.4258C43.1914 16.3477 43.4688 16.2656 43.6484 16.1797C43.8281 16.0859 43.9727 15.957 44.082 15.793C44.1914 15.6211 44.2695 15.3984 44.3164 15.125C44.3711 14.8516 44.3984 14.4883 44.3984 14.0352V10.2852ZM68.5625 10.6602C68.8438 11.1289 69.0781 11.5391 69.2656 11.8906C69.4609 12.2422 69.6602 12.6367 69.8633 13.0742H70.0156C69.9766 12.5977 69.9414 11.6523 69.9102 10.2383C69.8789 8.81641 69.8633 7.53516 69.8633 6.39453V3.93359C69.8633 3.39453 69.8477 3 69.8164 2.75C69.7852 2.5 69.7266 2.30859 69.6406 2.17578C69.5625 2.04297 69.4492 1.9375 69.3008 1.85938C69.1602 1.77344 68.9102 1.67969 68.5508 1.57812V1.00391H72.7695V1.57812C72.418 1.67188 72.168 1.75781 72.0195 1.83594C71.8789 1.91406 71.7617 2.01562 71.668 2.14062C71.582 2.26562 71.5156 2.45312 71.4688 2.70312C71.4219 2.95312 71.3984 3.36328 71.3984 3.93359V17.0703H69.9336L63.4062 6.125C63 5.44531 62.7109 4.94922 62.5391 4.63672C62.3672 4.32422 62.207 4.01562 62.0586 3.71094H61.8594C61.9141 4.3125 61.9531 5.40234 61.9766 6.98047C62 8.55078 62.0117 10.1172 62.0117 11.6797V14.0703C62.0117 14.5938 62.0273 14.9766 62.0586 15.2188C62.0977 15.4609 62.1562 15.6523 62.2344 15.793C62.3203 15.9336 62.4414 16.0508 62.5977 16.1445C62.7617 16.2383 63.0234 16.332 63.3828 16.4258V17H59.1055V16.4258C59.5898 16.3008 59.9141 16.1641 60.0781 16.0156C60.2422 15.8594 60.3477 15.6406 60.3945 15.3594C60.4492 15.0781 60.4766 14.6484 60.4766 14.0703V3.93359C60.4766 3.39453 60.457 3.00391 60.418 2.76172C60.3789 2.51172 60.3125 2.32031 60.2188 2.1875C60.1328 2.04688 60.0156 1.9375 59.8672 1.85938C59.7188 1.77344 59.4648 1.67969 59.1055 1.57812V1.00391H62.7734L68.5625 10.6602ZM81.7344 17.1875C80.7969 17.1875 79.9414 17.0352 79.168 16.7305C78.4023 16.418 77.7422 15.9375 77.1875 15.2891C76.6406 14.6328 76.2148 13.7969 75.9102 12.7812C75.6133 11.7656 75.4648 10.5508 75.4648 9.13672C75.4648 7.39453 75.7305 5.89844 76.2617 4.64844C76.793 3.39844 77.5508 2.44922 78.5352 1.80078C79.5273 1.14453 80.6758 0.816406 81.9805 0.816406C83.3711 0.816406 84.5391 1.125 85.4844 1.74219C86.4375 2.35156 87.1523 3.25391 87.6289 4.44922C88.1133 5.63672 88.3555 7.08594 88.3555 8.79688C88.3555 10.625 88.082 12.168 87.5352 13.4258C86.9883 14.6836 86.2148 15.625 85.2148 16.25C84.2227 16.875 83.0625 17.1875 81.7344 17.1875ZM77.8789 8.80859C77.8789 11.207 78.2266 13.0312 78.9219 14.2812C79.625 15.5312 80.6484 16.1562 81.9922 16.1562C82.8438 16.1562 83.5664 15.8867 84.1602 15.3477C84.7539 14.8008 85.1992 14.0039 85.4961 12.957C85.793 11.9102 85.9414 10.6875 85.9414 9.28906C85.9414 7.58594 85.7656 6.17578 85.4141 5.05859C85.0703 3.93359 84.5977 3.11719 83.9961 2.60938C83.3945 2.10156 82.6953 1.84766 81.8984 1.84766C81.1953 1.84766 80.5898 2.01172 80.082 2.33984C79.582 2.66797 79.1641 3.13672 78.8281 3.74609C78.5 4.34766 78.2578 5.07812 78.1016 5.9375C77.9531 6.79688 77.8789 7.75391 77.8789 8.80859ZM100.66 3.99219L96.9102 17.082H95.0117L91.6016 4.35547C91.4609 3.82422 91.332 3.39062 91.2148 3.05469C91.0977 2.71875 90.9805 2.45703 90.8633 2.26953C90.7461 2.07422 90.6172 1.92969 90.4766 1.83594C90.3438 1.73437 90.1484 1.64844 89.8906 1.57812V1.00391H94.9062V1.57812C94.4219 1.67188 94.082 1.8125 93.8867 2C93.6992 2.1875 93.6055 2.44922 93.6055 2.78516C93.6055 3.05859 93.6406 3.38281 93.7109 3.75781C93.7812 4.13281 93.8789 4.55859 94.0039 5.03516L96.3594 14.293L100.133 1.00391H102.102L105.16 14.3047L107.926 5.36328C108.262 4.27734 108.43 3.50391 108.43 3.04297C108.43 2.56641 108.328 2.22266 108.125 2.01172C107.93 1.80078 107.602 1.65625 107.141 1.57812V1.00391H111.758V1.57812C111.523 1.65625 111.336 1.74609 111.195 1.84766C111.055 1.94141 110.918 2.07422 110.785 2.24609C110.66 2.41016 110.52 2.66797 110.363 3.01953C110.215 3.37109 110.039 3.84375 109.836 4.4375L105.57 17.082H103.895L100.66 3.99219Z" fill="#F7F5D3"/>
</svg>
