<svg width="177" height="18" viewBox="0 0 177 18" fill="none" xmlns="http://www.w3.org/2000/svg">
<path d="M11.0273 3.99219L7.27734 17.082H5.37891L1.96875 4.35547C1.82812 3.82422 1.69922 3.39062 1.58203 3.05469C1.46484 2.71875 1.34766 2.45703 1.23047 2.26953C1.11328 2.07422 0.984375 1.92969 0.84375 1.83594C0.710938 1.73437 0.515625 1.64844 0.257812 1.57812V1.00391H5.27344V1.57812C4.78906 1.67188 4.44922 1.8125 4.25391 2C4.06641 2.1875 3.97266 2.44922 3.97266 2.78516C3.97266 3.05859 4.00781 3.38281 4.07812 3.75781C4.14844 4.13281 4.24609 4.55859 4.37109 5.03516L6.72656 14.293L10.5 1.00391H12.4688L15.5273 14.3047L18.293 5.36328C18.6289 4.27734 18.7969 3.50391 18.7969 3.04297C18.7969 2.56641 18.6953 2.22266 18.4922 2.01172C18.2969 1.80078 17.9688 1.65625 17.5078 1.57812V1.00391H22.125V1.57812C21.8906 1.65625 21.7031 1.74609 21.5625 1.84766C21.4219 1.94141 21.2852 2.07422 21.1523 2.24609C21.0273 2.41016 20.8867 2.66797 20.7305 3.01953C20.582 3.37109 20.4062 3.84375 20.2031 4.4375L15.9375 17.082H14.2617L11.0273 3.99219ZM29.6484 17V16.4258C30.0391 16.3477 30.3281 16.2617 30.5156 16.168C30.7109 16.0742 30.8555 15.9453 30.9492 15.7812C31.043 15.6094 31.0898 15.3828 31.0898 15.1016C31.0898 14.8359 31.0586 14.5508 30.9961 14.2461C30.9336 13.9336 30.8438 13.5859 30.7266 13.2031L30.293 11.6914H24.832L24.4336 12.8398C24.2305 13.418 24.0977 13.8555 24.0352 14.1523C23.9727 14.4492 23.9414 14.7188 23.9414 14.9609C23.9414 15.4297 24.0586 15.7734 24.293 15.9922C24.5352 16.2109 24.9023 16.3555 25.3945 16.4258V17H20.3906V16.4258C20.8281 16.3555 21.207 16.1016 21.5273 15.6641C21.8555 15.2266 22.1719 14.6016 22.4766 13.7891L27.3633 0.816406H29.2148L33.1992 13.8828C33.3867 14.4922 33.5508 14.957 33.6914 15.2773C33.8398 15.5977 34.0156 15.8477 34.2188 16.0273C34.4219 16.207 34.6992 16.3398 35.0508 16.4258V17H29.6484ZM25.1484 10.6719H30.0469L27.8203 3.11328L25.1484 10.6719ZM34.6406 1.00391H47.3203V5.08203H46.1719C46 4.41016 45.8281 3.87891 45.6562 3.48828C45.4922 3.09766 45.3164 2.80078 45.1289 2.59766C44.9414 2.39453 44.7383 2.25 44.5195 2.16406C44.3086 2.07812 43.9883 2.03516 43.5586 2.03516H42.0703V14.0352C42.0703 14.4961 42.0938 14.8633 42.1406 15.1367C42.1953 15.4102 42.2734 15.6289 42.375 15.793C42.4844 15.9492 42.6289 16.0742 42.8086 16.168C42.9883 16.2539 43.2695 16.3398 43.6523 16.4258V17H38.2969V16.4258C38.5312 16.3711 38.7383 16.3125 38.918 16.25C39.0977 16.1875 39.2422 16.1133 39.3516 16.0273C39.4688 15.9336 39.5625 15.8164 39.6328 15.6758C39.7109 15.5352 39.7695 15.3438 39.8086 15.1016C39.8555 14.8594 39.8789 14.5039 39.8789 14.0352V2.03516H38.4023C38.0352 2.03516 37.7305 2.07031 37.4883 2.14062C37.2539 2.21094 37.0352 2.35938 36.832 2.58594C36.6289 2.80469 36.4414 3.12109 36.2695 3.53516C36.1055 3.94141 35.9492 4.45703 35.8008 5.08203H34.6406V1.00391ZM59.9766 1.34375V4.58984H58.8164C58.6289 3.91016 58.3906 3.37109 58.1016 2.97266C57.8125 2.56641 57.4766 2.27734 57.0938 2.10547C56.7109 1.93359 56.25 1.84766 55.7109 1.84766C54.9062 1.84766 54.1875 2.11719 53.5547 2.65625C52.9297 3.1875 52.4375 3.99219 52.0781 5.07031C51.7188 6.14062 51.5391 7.4375 51.5391 8.96094C51.5391 10.4922 51.6875 11.8008 51.9844 12.8867C52.2812 13.9648 52.7188 14.7812 53.2969 15.3359C53.875 15.8828 54.5859 16.1562 55.4297 16.1562C56.0703 16.1562 56.5938 16.0664 57 15.8867C57.4062 15.6992 57.7461 15.4062 58.0195 15.0078C58.3008 14.6094 58.5664 14.0234 58.8164 13.25H59.9766V16.6016C59.2422 16.7969 58.4883 16.9414 57.7148 17.0352C56.9492 17.1367 56.1055 17.1875 55.1836 17.1875C53.1992 17.1875 51.6992 16.5156 50.6836 15.1719C49.668 13.8281 49.1602 11.8242 49.1602 9.16016C49.1602 7.48828 49.4219 6.02344 49.9453 4.76562C50.4766 3.50781 51.2539 2.53516 52.2773 1.84766C53.3008 1.16016 54.5234 0.816406 55.9453 0.816406C56.6562 0.816406 57.3125 0.855469 57.9141 0.933594C58.5156 1.00391 59.2031 1.14063 59.9766 1.34375ZM74.9531 14.0703C74.9531 14.5234 74.9648 14.8633 74.9883 15.0898C75.0117 15.3164 75.0508 15.5 75.1055 15.6406C75.1602 15.7734 75.2266 15.8828 75.3047 15.9688C75.3828 16.0547 75.4922 16.1328 75.6328 16.2031C75.7812 16.2734 76.0078 16.3477 76.3125 16.4258V17H71.4023V16.4258C71.832 16.3164 72.1328 16.1953 72.3047 16.0625C72.4766 15.9297 72.5938 15.7266 72.6562 15.4531C72.7266 15.1797 72.7617 14.7188 72.7617 14.0703V9.16016H66.2461V14.0703C66.2461 14.5938 66.2617 14.9766 66.293 15.2188C66.332 15.4609 66.3906 15.6523 66.4688 15.793C66.5547 15.9336 66.6758 16.0508 66.832 16.1445C66.9961 16.2383 67.2578 16.332 67.6172 16.4258V17H62.6836V16.4258C63.168 16.3008 63.4922 16.1641 63.6562 16.0156C63.8203 15.8594 63.9258 15.6406 63.9727 15.3594C64.0273 15.0781 64.0547 14.6484 64.0547 14.0703V3.93359C64.0547 3.39453 64.0352 3.00391 63.9961 2.76172C63.957 2.51172 63.8906 2.32031 63.7969 2.1875C63.7109 2.04688 63.5938 1.9375 63.4453 1.85938C63.2969 1.77344 63.043 1.67969 62.6836 1.57812V1.00391H67.6172V1.57812C67.2734 1.66406 67.0234 1.75 66.8672 1.83594C66.7188 1.92187 66.5977 2.03125 66.5039 2.16406C66.418 2.28906 66.3516 2.48047 66.3047 2.73828C66.2656 2.99609 66.2461 3.39453 66.2461 3.93359V8.08203H72.7617V3.93359C72.7617 3.25391 72.7266 2.78906 72.6562 2.53906C72.5938 2.28906 72.4844 2.09766 72.3281 1.96484C72.1719 1.83203 71.8633 1.70313 71.4023 1.57812V1.00391H76.3125V1.57812C75.875 1.6875 75.5703 1.8125 75.3984 1.95312C75.2266 2.08594 75.1094 2.28906 75.0469 2.5625C74.9844 2.83594 74.9531 3.29297 74.9531 3.93359V14.0703ZM83.8125 1.00391H96.4922V5.08203H95.3438C95.1719 4.41016 95 3.87891 94.8281 3.48828C94.6641 3.09766 94.4883 2.80078 94.3008 2.59766C94.1133 2.39453 93.9102 2.25 93.6914 2.16406C93.4805 2.07812 93.1602 2.03516 92.7305 2.03516H91.2422V14.0352C91.2422 14.4961 91.2656 14.8633 91.3125 15.1367C91.3672 15.4102 91.4453 15.6289 91.5469 15.793C91.6562 15.9492 91.8008 16.0742 91.9805 16.168C92.1602 16.2539 92.4414 16.3398 92.8242 16.4258V17H87.4688V16.4258C87.7031 16.3711 87.9102 16.3125 88.0898 16.25C88.2695 16.1875 88.4141 16.1133 88.5234 16.0273C88.6406 15.9336 88.7344 15.8164 88.8047 15.6758C88.8828 15.5352 88.9414 15.3438 88.9805 15.1016C89.0273 14.8594 89.0508 14.5039 89.0508 14.0352V2.03516H87.5742C87.207 2.03516 86.9023 2.07031 86.6602 2.14062C86.4258 2.21094 86.207 2.35938 86.0039 2.58594C85.8008 2.80469 85.6133 3.12109 85.4414 3.53516C85.2773 3.94141 85.1211 4.45703 84.9727 5.08203H83.8125V1.00391ZM102.258 10.0508V14.0352C102.258 14.5977 102.277 15.0078 102.316 15.2656C102.363 15.5156 102.43 15.707 102.516 15.8398C102.602 15.9648 102.719 16.0703 102.867 16.1562C103.016 16.2344 103.27 16.3242 103.629 16.4258V17H98.6836V16.4258C99.168 16.3008 99.4922 16.1641 99.6562 16.0156C99.8203 15.8594 99.9258 15.6406 99.9727 15.3594C100.027 15.0781 100.055 14.6484 100.055 14.0703V3.93359C100.055 3.39453 100.035 3.00391 99.9961 2.76172C99.957 2.51172 99.8906 2.32031 99.7969 2.1875C99.7109 2.04688 99.5938 1.9375 99.4453 1.85938C99.2969 1.77344 99.043 1.67969 98.6836 1.57812V1.00391H104.484C106.312 1.00391 107.68 1.33594 108.586 2C109.492 2.66406 109.945 3.69531 109.945 5.09375C109.945 6.16406 109.648 7.07422 109.055 7.82422C108.469 8.57422 107.586 9.16016 106.406 9.58203V9.67578C106.883 9.87109 107.289 10.1523 107.625 10.5195C107.969 10.8789 108.348 11.4414 108.762 12.207L109.816 14.1289C110.121 14.6914 110.383 15.1211 110.602 15.418C110.82 15.7148 111.043 15.9414 111.27 16.0977C111.496 16.2539 111.797 16.3633 112.172 16.4258V17H108.926C108.629 16.5859 108.348 16.1406 108.082 15.6641C107.816 15.1875 107.555 14.7031 107.297 14.2109L106.266 12.2539C105.953 11.6602 105.695 11.2227 105.492 10.9414C105.297 10.6602 105.113 10.4648 104.941 10.3555C104.777 10.2383 104.598 10.1602 104.402 10.1211C104.215 10.0742 103.93 10.0508 103.547 10.0508H102.258ZM102.258 2.08203V9.04297H103.582C104.262 9.04297 104.812 8.99609 105.234 8.90234C105.656 8.80078 106.047 8.61328 106.406 8.33984C106.766 8.06641 107.051 7.6875 107.262 7.20312C107.48 6.71094 107.59 6.10938 107.59 5.39844C107.59 4.65625 107.461 4.03906 107.203 3.54688C106.953 3.05469 106.57 2.67969 106.055 2.42188C105.539 2.16406 104.844 2.03516 103.969 2.03516C103.266 2.03516 102.695 2.05078 102.258 2.08203ZM121.5 17V16.4258C121.891 16.3477 122.18 16.2617 122.367 16.168C122.562 16.0742 122.707 15.9453 122.801 15.7812C122.895 15.6094 122.941 15.3828 122.941 15.1016C122.941 14.8359 122.91 14.5508 122.848 14.2461C122.785 13.9336 122.695 13.5859 122.578 13.2031L122.145 11.6914H116.684L116.285 12.8398C116.082 13.418 115.949 13.8555 115.887 14.1523C115.824 14.4492 115.793 14.7188 115.793 14.9609C115.793 15.4297 115.91 15.7734 116.145 15.9922C116.387 16.2109 116.754 16.3555 117.246 16.4258V17H112.242V16.4258C112.68 16.3555 113.059 16.1016 113.379 15.6641C113.707 15.2266 114.023 14.6016 114.328 13.7891L119.215 0.816406H121.066L125.051 13.8828C125.238 14.4922 125.402 14.957 125.543 15.2773C125.691 15.5977 125.867 15.8477 126.07 16.0273C126.273 16.207 126.551 16.3398 126.902 16.4258V17H121.5ZM117 10.6719H121.898L119.672 3.11328L117 10.6719ZM132.117 14.0703C132.117 14.5938 132.133 14.9766 132.164 15.2188C132.203 15.4609 132.262 15.6523 132.34 15.793C132.426 15.9336 132.547 16.0508 132.703 16.1445C132.867 16.2383 133.129 16.332 133.488 16.4258V17H128.543V16.4258C129.027 16.3008 129.352 16.1641 129.516 16.0156C129.68 15.8594 129.785 15.6406 129.832 15.3594C129.887 15.0781 129.914 14.6484 129.914 14.0703V3.93359C129.914 3.39453 129.895 3.00391 129.855 2.76172C129.816 2.51172 129.75 2.32031 129.656 2.1875C129.57 2.04688 129.453 1.9375 129.305 1.85938C129.156 1.77344 128.902 1.67969 128.543 1.57812V1.00391H133.488V1.57812C133.145 1.66406 132.895 1.75 132.738 1.83594C132.59 1.92187 132.469 2.03125 132.375 2.16406C132.289 2.28906 132.223 2.48047 132.176 2.73828C132.137 2.99609 132.117 3.39453 132.117 3.93359V14.0703ZM139.887 15.9219H142.957C143.293 15.9219 143.574 15.9023 143.801 15.8633C144.027 15.8242 144.219 15.7656 144.375 15.6875C144.539 15.6016 144.684 15.4883 144.809 15.3477C144.941 15.1992 145.066 15.0078 145.184 14.7734C145.301 14.5391 145.41 14.2461 145.512 13.8945C145.621 13.5352 145.754 13 145.91 12.2891H147.094L146.859 17H136.324V16.4258C136.809 16.3008 137.133 16.1641 137.297 16.0156C137.461 15.8594 137.566 15.6406 137.613 15.3594C137.668 15.0781 137.695 14.6484 137.695 14.0703V3.93359C137.695 3.39453 137.676 3.00391 137.637 2.76172C137.598 2.51172 137.531 2.32031 137.438 2.1875C137.352 2.04688 137.234 1.9375 137.086 1.85938C136.938 1.77344 136.684 1.67969 136.324 1.57812V1.00391H141.258V1.57812C140.914 1.67188 140.668 1.75781 140.52 1.83594C140.379 1.90625 140.262 2.00391 140.168 2.12891C140.074 2.25391 140.004 2.44531 139.957 2.70312C139.91 2.96094 139.887 3.37109 139.887 3.93359V15.9219ZM160.172 1.00391V4.54297H159.023C158.906 4.16016 158.785 3.82422 158.66 3.53516C158.535 3.24609 158.406 3.00391 158.273 2.80859C158.141 2.61328 157.992 2.45703 157.828 2.33984C157.672 2.22266 157.484 2.14453 157.266 2.10547C157.047 2.05859 156.785 2.03516 156.48 2.03516H152.777V8.17578H155.285C155.629 8.17578 155.898 8.12891 156.094 8.03516C156.289 7.93359 156.449 7.76562 156.574 7.53125C156.707 7.29688 156.832 6.92969 156.949 6.42969H158.051V10.9297H156.949C156.84 10.4609 156.719 10.1094 156.586 9.875C156.453 9.63281 156.293 9.46094 156.105 9.35938C155.926 9.25781 155.652 9.20703 155.285 9.20703H152.777V15.9688H156.422C156.805 15.9688 157.113 15.9375 157.348 15.875C157.59 15.8047 157.797 15.6914 157.969 15.5352C158.141 15.3711 158.293 15.1602 158.426 14.9023C158.559 14.6445 158.668 14.3789 158.754 14.1055C158.848 13.8242 158.973 13.418 159.129 12.8867H160.289L160.066 17H149.215V16.4258C149.699 16.3008 150.023 16.1641 150.188 16.0156C150.352 15.8594 150.457 15.6406 150.504 15.3594C150.559 15.0781 150.586 14.6484 150.586 14.0703V3.93359C150.586 3.39453 150.566 3.00391 150.527 2.76172C150.488 2.51172 150.422 2.32031 150.328 2.1875C150.242 2.04688 150.125 1.9375 149.977 1.85938C149.828 1.77344 149.574 1.67969 149.215 1.57812V1.00391H160.172ZM166.594 10.0508V14.0352C166.594 14.5977 166.613 15.0078 166.652 15.2656C166.699 15.5156 166.766 15.707 166.852 15.8398C166.938 15.9648 167.055 16.0703 167.203 16.1562C167.352 16.2344 167.605 16.3242 167.965 16.4258V17H163.02V16.4258C163.504 16.3008 163.828 16.1641 163.992 16.0156C164.156 15.8594 164.262 15.6406 164.309 15.3594C164.363 15.0781 164.391 14.6484 164.391 14.0703V3.93359C164.391 3.39453 164.371 3.00391 164.332 2.76172C164.293 2.51172 164.227 2.32031 164.133 2.1875C164.047 2.04688 163.93 1.9375 163.781 1.85938C163.633 1.77344 163.379 1.67969 163.02 1.57812V1.00391H168.82C170.648 1.00391 172.016 1.33594 172.922 2C173.828 2.66406 174.281 3.69531 174.281 5.09375C174.281 6.16406 173.984 7.07422 173.391 7.82422C172.805 8.57422 171.922 9.16016 170.742 9.58203V9.67578C171.219 9.87109 171.625 10.1523 171.961 10.5195C172.305 10.8789 172.684 11.4414 173.098 12.207L174.152 14.1289C174.457 14.6914 174.719 15.1211 174.938 15.418C175.156 15.7148 175.379 15.9414 175.605 16.0977C175.832 16.2539 176.133 16.3633 176.508 16.4258V17H173.262C172.965 16.5859 172.684 16.1406 172.418 15.6641C172.152 15.1875 171.891 14.7031 171.633 14.2109L170.602 12.2539C170.289 11.6602 170.031 11.2227 169.828 10.9414C169.633 10.6602 169.449 10.4648 169.277 10.3555C169.113 10.2383 168.934 10.1602 168.738 10.1211C168.551 10.0742 168.266 10.0508 167.883 10.0508H166.594ZM166.594 2.08203V9.04297H167.918C168.598 9.04297 169.148 8.99609 169.57 8.90234C169.992 8.80078 170.383 8.61328 170.742 8.33984C171.102 8.06641 171.387 7.6875 171.598 7.20312C171.816 6.71094 171.926 6.10938 171.926 5.39844C171.926 4.65625 171.797 4.03906 171.539 3.54688C171.289 3.05469 170.906 2.67969 170.391 2.42188C169.875 2.16406 169.18 2.03516 168.305 2.03516C167.602 2.03516 167.031 2.05078 166.594 2.08203Z" fill="#F7F5D3"/>
</svg>
